<mxfile host="app.diagrams.net" modified="2020-11-29T10:12:12.116Z" agent="5.0 (Macintosh; Intel Mac OS X 10_15_7) AppleWebKit/605.1.15 (KHTML, like Gecko) Version/14.0.1 Safari/605.1.15" etag="y-gVG8N1JAYwfCDWtU8Z" version="13.9.9" type="github">
  <diagram id="WRvguyT1vHg9RNeb5zLC" name="第 1 页">
    <mxGraphModel dx="830" dy="745" grid="1" gridSize="10" guides="1" tooltips="1" connect="1" arrows="1" fold="1" page="1" pageScale="1" pageWidth="827" pageHeight="1169" math="0" shadow="0">
      <root>
        <mxCell id="0" />
        <mxCell id="1" parent="0" />
        <mxCell id="gbZxqpFTGqBgUN-IIqef-1" value="&lt;font size=&quot;1&quot;&gt;&lt;b style=&quot;font-size: 18px&quot;&gt;&amp;nbsp;-1 的二进制&lt;br&gt;（非补码表示方式）&lt;br&gt;&lt;/b&gt;&lt;/font&gt;" style="rounded=1;whiteSpace=wrap;html=1;fontSize=16;verticalAlign=top;fillColor=#f9f7ed;strokeColor=none;" vertex="1" parent="1">
          <mxGeometry x="90" y="150" width="410" height="160" as="geometry" />
        </mxCell>
        <mxCell id="gbZxqpFTGqBgUN-IIqef-2" value="1" style="rounded=0;whiteSpace=wrap;html=1;fontSize=18;fillColor=#f8cecc;strokeColor=none;" vertex="1" parent="1">
          <mxGeometry x="110" y="250" width="50" height="40" as="geometry" />
        </mxCell>
        <mxCell id="gbZxqpFTGqBgUN-IIqef-3" value="000000000000000000000000000000&lt;font color=&quot;#ff3399&quot;&gt;1&lt;/font&gt;" style="rounded=0;whiteSpace=wrap;html=1;fontSize=18;fillColor=#dae8fc;strokeColor=none;" vertex="1" parent="1">
          <mxGeometry x="160" y="250" width="320" height="40" as="geometry" />
        </mxCell>
        <mxCell id="gbZxqpFTGqBgUN-IIqef-4" value="符号位" style="text;html=1;align=center;verticalAlign=middle;resizable=0;points=[];autosize=1;fontSize=16;" vertex="1" parent="1">
          <mxGeometry x="110" y="200" width="60" height="20" as="geometry" />
        </mxCell>
        <mxCell id="gbZxqpFTGqBgUN-IIqef-6" value="" style="shape=curlyBracket;whiteSpace=wrap;html=1;rounded=1;fontSize=16;rotation=90;" vertex="1" parent="1">
          <mxGeometry x="125" y="210" width="20" height="50" as="geometry" />
        </mxCell>
        <mxCell id="gbZxqpFTGqBgUN-IIqef-8" value="&lt;font size=&quot;1&quot;&gt;&lt;b style=&quot;font-size: 18px&quot;&gt;&amp;nbsp;-2 的二进制&lt;br&gt;（非补码表示方式）&lt;br&gt;&lt;/b&gt;&lt;/font&gt;" style="rounded=1;whiteSpace=wrap;html=1;fontSize=16;verticalAlign=top;fillColor=#f9f7ed;strokeColor=none;" vertex="1" parent="1">
          <mxGeometry x="90" y="330" width="410" height="160" as="geometry" />
        </mxCell>
        <mxCell id="gbZxqpFTGqBgUN-IIqef-9" value="1" style="rounded=0;whiteSpace=wrap;html=1;fontSize=18;fillColor=#f8cecc;strokeColor=none;" vertex="1" parent="1">
          <mxGeometry x="110" y="430" width="50" height="40" as="geometry" />
        </mxCell>
        <mxCell id="gbZxqpFTGqBgUN-IIqef-10" value="00000000000000000000000000000&lt;font color=&quot;#ff3399&quot;&gt;10&lt;/font&gt;" style="rounded=0;whiteSpace=wrap;html=1;fontSize=18;fillColor=#dae8fc;strokeColor=none;" vertex="1" parent="1">
          <mxGeometry x="160" y="430" width="320" height="40" as="geometry" />
        </mxCell>
        <mxCell id="gbZxqpFTGqBgUN-IIqef-11" value="符号位" style="text;html=1;align=center;verticalAlign=middle;resizable=0;points=[];autosize=1;fontSize=16;" vertex="1" parent="1">
          <mxGeometry x="110" y="380" width="60" height="20" as="geometry" />
        </mxCell>
        <mxCell id="gbZxqpFTGqBgUN-IIqef-12" value="" style="shape=curlyBracket;whiteSpace=wrap;html=1;rounded=1;fontSize=16;rotation=90;" vertex="1" parent="1">
          <mxGeometry x="125" y="390" width="20" height="50" as="geometry" />
        </mxCell>
        <mxCell id="gbZxqpFTGqBgUN-IIqef-13" value="" style="endArrow=none;dashed=1;html=1;dashPattern=1 3;strokeWidth=2;fontSize=16;fontColor=#FF3399;" edge="1" parent="1">
          <mxGeometry width="50" height="50" relative="1" as="geometry">
            <mxPoint x="70" y="320" as="sourcePoint" />
            <mxPoint x="550" y="320" as="targetPoint" />
          </mxGeometry>
        </mxCell>
      </root>
    </mxGraphModel>
  </diagram>
</mxfile>
